<?xml version="1.0" standalone="no"?>
<!DOCTYPE svg PUBLIC "-//W3C//DTD SVG 20010904//EN"
 "http://www.w3.org/TR/2001/REC-SVG-20010904/DTD/svg10.dtd">
<svg version="1.0" xmlns="http://www.w3.org/2000/svg"
 width="500.000000pt" height="500.000000pt" viewBox="0 0 500.000000 500.000000"
 preserveAspectRatio="xMidYMid meet">

<g transform="translate(0.000000,500.000000) scale(0.100000,-0.100000)"
fill="#000000" stroke="none">
<path d="M0 2500 l0 -2500 2500 0 2500 0 0 2500 0 2500 -2500 0 -2500 0 0
-2500z m2728 1750 c45 -19 62 -22 123 -16 40 4 83 12 96 17 17 6 45 4 88 -6
49 -11 71 -12 96 -3 29 10 33 8 63 -23 72 -79 82 -110 137 -399 26 -141 31
-204 25 -345 -4 -82 -9 -168 -11 -190 -13 -105 -17 -123 -32 -170 -22 -68
-101 -185 -124 -185 -11 0 -19 -7 -19 -15 0 -8 -7 -15 -15 -15 -8 0 -22 -12
-32 -27 -26 -43 -48 -61 -69 -59 -33 4 -53 17 -47 32 3 8 -1 14 -10 14 -8 0
-18 7 -21 16 -5 12 -14 15 -36 10 -26 -5 -32 -2 -40 20 -11 29 -6 44 15 44 8
0 12 6 9 14 -3 8 3 19 15 26 23 12 28 36 9 43 -8 2 6 21 35 46 26 24 47 47 47
52 0 6 -4 7 -10 4 -5 -3 -10 -1 -10 4 0 16 -18 13 -38 -6 -13 -14 -32 -18 -77
-17 -110 2 -114 9 -14 25 35 5 83 19 107 31 23 11 51 18 62 15 11 -3 24 1 31
9 14 17 39 18 39 2 0 -27 21 -88 30 -88 23 0 70 133 70 196 0 22 -13 49 -38
83 -35 46 -106 110 -124 111 -12 0 5 -85 23 -116 11 -17 19 -36 19 -43 0 -15
-62 -14 -83 2 -17 12 -17 14 -1 45 9 18 14 36 11 39 -13 13 -44 -11 -63 -50
-25 -51 -64 -65 -64 -23 0 20 -8 29 -37 42 -33 14 -47 14 -100 4 -34 -7 -67
-9 -72 -5 -6 3 -11 21 -11 40 0 19 -4 36 -9 39 -15 10 -59 -41 -70 -81 -6 -22
-19 -47 -28 -56 -29 -25 -122 -85 -143 -92 -11 -3 -20 -15 -20 -25 0 -10 -4
-22 -10 -25 -5 -3 -10 -17 -10 -31 0 -17 -5 -24 -19 -24 -28 0 -33 -13 -22
-59 6 -28 5 -40 -2 -38 -6 1 -15 -23 -19 -53 -9 -55 -26 -87 -35 -62 -3 6 -9
12 -15 12 -9 0 -8 -26 7 -152 2 -15 6 -32 11 -39 4 -7 8 -40 8 -74 1 -57 0
-60 -14 -41 -52 70 -78 136 -96 248 -18 111 -59 242 -91 291 -21 33 -26 37
-36 23 -7 -8 -24 -18 -39 -21 -22 -6 -35 1 -73 36 -54 50 -113 155 -96 172 6
6 11 33 11 59 0 27 9 73 19 103 23 65 12 92 -32 81 -15 -3 -27 -4 -27 -1 0 16
22 45 34 45 18 0 66 -59 66 -81 0 -24 19 -34 26 -15 6 15 6 15 86 -34 24 -14
32 21 19 80 -6 25 -11 86 -11 136 0 88 1 93 29 123 16 17 37 31 46 31 13 0 16
6 11 24 -4 18 1 33 19 54 14 17 25 33 25 36 0 4 12 24 26 46 34 51 79 66 139
47 14 -5 29 1 47 18 15 14 31 25 37 25 5 0 7 9 4 20 -4 14 0 20 11 20 9 0 16
8 16 17 0 13 3 14 12 5 19 -19 28 -14 28 13 0 20 5 25 24 25 14 0 28 4 31 10
10 16 118 3 173 -20z m377 -990 c3 -6 -4 -14 -17 -19 -13 -5 -24 -5 -26 0 -2
5 -10 9 -18 9 -8 0 -14 5 -14 10 0 13 67 13 75 0z m-369 -204 c1 0 6 -14 11
-31 6 -19 21 -35 41 -44 31 -14 43 -31 22 -31 -5 0 -10 -6 -10 -14 0 -7 -9
-16 -19 -19 -15 -3 -18 -1 -14 11 5 11 2 14 -10 9 -20 -8 -54 22 -58 50 -1 10
2 27 6 37 6 13 4 21 -3 24 -23 7 -12 23 11 16 12 -3 23 -7 23 -8z m69 -16 c3
-5 -3 -10 -14 -10 -11 0 -23 5 -26 10 -3 6 3 10 14 10 11 0 23 -4 26 -10z m70
-125 c0 -13 -8 -21 -22 -23 -23 -3 -31 12 -13 23 6 4 7 11 4 17 -4 6 1 8 12 6
11 -2 19 -12 19 -23z m-54 -39 c5 3 15 -1 23 -9 12 -11 8 -16 -26 -31 -42 -18
-71 -18 -72 -1 0 6 12 16 27 23 15 7 27 18 28 25 0 9 2 9 6 -1 2 -6 9 -10 14
-6z m-96 -17 c-10 -15 -25 -10 -19 6 4 8 10 12 15 9 5 -3 7 -10 4 -15z m320
-209 c-3 -5 -1 -10 4 -10 15 0 13 -153 -3 -210 -6 -25 -17 -44 -23 -43 -6 1
-14 -10 -17 -25 -4 -15 -17 -51 -28 -79 -12 -29 -19 -56 -15 -59 9 -9 37 15
37 32 0 8 3 14 8 14 22 -1 33 -23 38 -81 5 -52 3 -74 -13 -110 -11 -24 -23
-57 -27 -74 -4 -16 -19 -50 -33 -74 -25 -42 -27 -43 -40 -25 -36 48 -85 160
-90 207 -5 43 -3 50 8 40 7 -7 18 -13 25 -13 15 0 34 47 34 85 0 76 -6 154
-12 160 -3 3 -4 24 -1 46 4 29 1 45 -11 58 -34 38 3 101 60 104 38 2 84 33 84
56 0 6 5 11 11 11 5 0 7 -4 4 -10z m229 -879 c-4 -34 -2 -56 9 -77 l15 -28 -2
38 c-1 49 19 58 27 12 3 -19 13 -51 23 -71 12 -26 14 -42 7 -58 -10 -21 -10
-21 -38 8 -59 63 -94 182 -63 213 22 22 29 12 22 -37z m16 -240 c0 -11 4 -22
9 -25 5 -4 7 2 4 13 -10 37 22 35 46 -4 9 -15 11 -16 7 -2 -4 12 0 17 14 17
13 0 20 -7 20 -18 0 -10 3 -22 6 -25 4 -4 8 -22 10 -42 3 -34 2 -35 -31 -36
-116 -4 -110 -6 -107 23 1 14 -2 44 -7 67 -5 22 -6 42 -3 46 12 12 32 4 32
-14z m645 -104 c-7 -38 -15 -48 -15 -19 0 21 -2 20 -45 -10 -25 -18 -45 -40
-45 -49 0 -25 -11 -49 -21 -49 -5 0 -9 34 -9 75 l0 74 33 5 c51 9 91 12 100 8
4 -2 5 -17 2 -35z m-178 7 c-3 -3 -12 -4 -19 -1 -8 3 -5 6 6 6 11 1 17 -2 13
-5z"/>
<path d="M2515 4140 c-3 -5 -1 -10 4 -10 6 0 11 5 11 10 0 6 -2 10 -4 10 -3 0
-8 -4 -11 -10z"/>
<path d="M2420 4116 c-19 -19 -10 -25 38 -22 67 5 66 5 53 20 -13 16 -76 17
-91 2z"/>
<path d="M3155 4005 c-5 -2 -44 -13 -85 -25 -126 -37 -161 -60 -162 -111 -1
-16 -12 -41 -25 -55 -12 -14 -23 -30 -23 -35 0 -5 16 -34 35 -64 24 -38 43
-56 62 -60 15 -4 38 -11 51 -16 38 -15 94 -10 142 14 25 12 46 29 46 37 1 8 3
17 4 20 1 3 3 13 5 23 2 11 5 20 7 20 30 15 44 27 46 42 5 23 -44 72 -86 86
-43 14 -30 29 26 32 23 1 41 6 40 12 -1 5 5 22 12 38 7 15 10 30 7 33 -7 8
-88 15 -102 9z m-15 -209 c0 -8 -4 -18 -10 -21 -5 -3 -10 3 -10 14 0 12 5 21
10 21 6 0 10 -6 10 -14z m-120 -32 c0 -11 -5 -14 -16 -10 -9 3 -18 6 -20 6 -3
0 -2 5 1 10 10 16 35 12 35 -6z"/>
<path d="M2472 3909 c-34 -4 -77 -15 -94 -23 -17 -9 -39 -16 -48 -16 -31 0
-50 -33 -50 -87 0 -32 -5 -55 -14 -63 -8 -6 -20 -27 -27 -47 -10 -32 -9 -37
17 -64 15 -16 32 -29 38 -29 5 0 18 -7 27 -16 10 -9 29 -18 41 -20 13 -2 47
-9 77 -15 61 -12 121 -1 177 32 17 10 34 16 37 13 9 -9 85 37 101 61 7 11 17
35 20 52 4 18 21 51 37 73 28 38 29 45 19 71 -7 16 -16 29 -20 29 -4 0 -10 10
-13 21 -5 18 -11 21 -40 15 -23 -4 -36 -3 -39 5 -5 14 -156 19 -246 8z m11
-211 c8 -28 4 -32 -29 -24 -25 7 -26 8 -9 26 23 26 31 25 38 -2z"/>
<path d="M1932 3495 c-38 -33 -42 -41 -42 -81 0 -59 28 -89 76 -81 27 5 34 2
39 -14 6 -18 45 -28 45 -11 0 17 -48 73 -55 63 -3 -6 -14 -11 -23 -11 -13 0
-11 6 11 25 32 31 37 90 9 124 l-17 22 -43 -36z"/>
</g>
</svg>
